<?xml version="1.0" encoding="utf-8" standalone="no"?>
<!DOCTYPE svg PUBLIC "-//W3C//DTD SVG 1.1//EN" "http://www.w3.org/Graphics/SVG/1.1/DTD/svg11.dtd">
<svg width="3000px" height="3000px" version="1.1" xmlns="http://www.w3.org/2000/svg" xmlns:xlink="http://www.w3.org/1999/xlink">
<g id="bg">
<rect x="0" y="0" width="3000px" height="3000px" style="fill:none;"/></g>
<g id="ideograms">
<g id="highlighttrack_0">
<path d="M1762.751,501.596 A1032.400,1032.400 40.000 0,1 1846.080,527.334 L1830.526,571.050 A986.000,986.000 0.000 0,0 1750.942,546.468 Z" style="stroke-linecap:round;fill:rgb(185,199,186);" />
<path d="M2072.557,640.914 A1032.400,1032.400 40.000 0,1 2097.009,657.723 L2070.177,695.579 A986.000,986.000 0.000 0,0 2046.824,679.525 Z" style="stroke-linecap:round;fill:rgb(185,199,186);" />
<path d="M2211.482,751.907 A1032.400,1032.400 40.000 0,1 2518.681,1332.251 L2472.897,1339.791 A986.000,986.000 0.000 0,0 2179.505,785.529 Z" style="stroke-linecap:round;fill:rgb(185,199,186);" />
<path d="M2518.681,1332.251 A1032.400,1032.400 40.000 0,1 2525.373,1620.247 L2479.289,1614.843 A986.000,986.000 0.000 0,0 2472.897,1339.791 Z" style="stroke-linecap:round;fill:rgb(185,199,186);" />
<path d="M2525.465,1619.461 A1032.400,1032.400 40.000 0,1 2466.953,1861.735 L2423.494,1845.477 A986.000,986.000 0.000 0,0 2479.377,1614.092 Z" style="stroke-linecap:round;fill:rgb(185,199,186);" />
<path d="M2464.857,1867.287 A1032.400,1032.400 40.000 0,1 2449.534,1905.258 L2406.859,1887.044 A986.000,986.000 0.000 0,0 2421.493,1850.780 Z" style="stroke-linecap:round;fill:rgb(185,199,186);" />
<path d="M2425.911,1956.659 A1032.400,1032.400 40.000 0,1 2403.078,2000.300 L2362.490,1977.814 A986.000,986.000 0.000 0,0 2384.297,1936.135 Z" style="stroke-linecap:round;fill:rgb(185,199,186);" />
<path d="M1648.740,2521.629 A1032.400,1032.400 40.000 0,1 1593.937,2528.117 L1589.715,2481.910 A986.000,986.000 0.000 0,0 1642.055,2475.713 Z" style="stroke-linecap:round;fill:rgb(185,199,186);" />
<path d="M1599.058,2527.637 A1032.400,1032.400 40.000 0,1 1536.691,2531.748 L1535.042,2485.377 A986.000,986.000 0.000 0,0 1594.606,2481.451 Z" style="stroke-linecap:round;fill:rgb(185,199,186);" />
<path d="M1522.850,2532.147 A1032.400,1032.400 40.000 0,1 1390.714,2526.599 L1395.626,2480.460 A986.000,986.000 0.000 0,0 1521.823,2485.758 Z" style="stroke-linecap:round;fill:rgb(185,199,186);" />
<path d="M1395.633,2527.111 A1032.400,1032.400 40.000 0,1 1338.554,2519.698 L1345.810,2473.869 A986.000,986.000 0.000 0,0 1400.324,2480.949 Z" style="stroke-linecap:round;fill:rgb(185,199,186);" />
<path d="M849.349,2301.563 A1032.400,1032.400 40.000 0,1 683.785,2132.174 L720.469,2103.761 A986.000,986.000 0.000 0,0 878.592,2265.538 Z" style="stroke-linecap:round;fill:rgb(185,199,186);" />
<path d="M499.869,1756.102 A1032.400,1032.400 40.000 0,1 468.587,1545.143 L514.943,1543.114 A986.000,986.000 0.000 0,0 544.819,1744.592 Z" style="stroke-linecap:round;fill:rgb(185,199,186);" />
<path d="M497.910,1251.676 A1032.400,1032.400 40.000 0,1 514.891,1191.114 L559.166,1204.997 A986.000,986.000 0.000 0,0 542.947,1262.837 Z" style="stroke-linecap:round;fill:rgb(185,199,186);" />
<path d="M522.508,1167.798 A1032.400,1032.400 40.000 0,1 539.682,1121.004 L582.842,1138.037 A986.000,986.000 0.000 0,0 566.440,1182.728 Z" style="stroke-linecap:round;fill:rgb(185,199,186);" />
<path d="M547.577,1101.578 A1032.400,1032.400 40.000 0,1 734.780,806.972 L769.172,838.119 A986.000,986.000 0.000 0,0 590.382,1119.485 Z" style="stroke-linecap:round;fill:rgb(185,199,186);" />
<path d="M1269.320,493.702 A1032.400,1032.400 40.000 0,1 1316.408,484.055 L1324.659,529.716 A986.000,986.000 0.000 0,0 1279.687,538.929 Z" style="stroke-linecap:round;fill:rgb(185,199,186);" />
<path d="M1315.629,484.196 A1032.400,1032.400 40.000 0,1 1380.187,474.576 L1385.572,520.662 A986.000,986.000 0.000 0,0 1323.916,529.850 Z" style="stroke-linecap:round;fill:rgb(185,199,186);" />
</g>
<g id="highlighttrack_1">
<path d="M1746.365,557.259 A974.400,974.400 40.000 1,1 1479.644,525.813 L1480.614,572.203 A928.000,928.000 0.000 1,0 1734.633,602.152 Z" style="stroke-linecap:round;fill:rgb(175,201,178);" />
<path d="M2385.997,1905.543 A974.400,974.400 40.000 0,1 2370.984,1936.855 L2329.508,1916.053 A928.000,928.000 0.000 0,0 2343.807,1886.231 Z" style="stroke-linecap:round;fill:rgb(175,201,178);" />
<path d="M2313.685,2036.071 A974.400,974.400 40.000 0,1 1763.397,2438.124 L1750.854,2393.452 A928.000,928.000 0.000 0,0 2274.938,2010.544 Z" style="stroke-linecap:round;fill:rgb(175,201,178);" />
<path d="M1324.802,2458.520 A974.400,974.400 40.000 0,1 930.230,2290.454 L957.362,2252.813 A928.000,928.000 0.000 0,0 1333.145,2412.876 Z" style="stroke-linecap:round;fill:rgb(175,201,178);" />
<path d="M684.679,2033.579 A974.400,974.400 40.000 0,1 629.103,1937.028 L670.574,1916.217 A928.000,928.000 0.000 0,0 723.503,2008.170 Z" style="stroke-linecap:round;fill:rgb(175,201,178);" />
<path d="M628.935,1936.694 A974.400,974.400 40.000 0,1 594.150,1859.015 L637.286,1841.919 A928.000,928.000 0.000 0,0 670.415,1915.899 Z" style="stroke-linecap:round;fill:rgb(175,201,178);" />
<path d="M527.725,1435.684 A974.400,974.400 40.000 0,1 537.218,1349.977 L583.065,1357.121 A928.000,928.000 0.000 0,0 574.024,1438.747 Z" style="stroke-linecap:round;fill:rgb(175,201,178);" />
<path d="M831.331,791.243 A974.400,974.400 40.000 0,1 944.168,699.684 L970.636,737.794 A928.000,928.000 0.000 0,0 863.172,824.993 Z" style="stroke-linecap:round;fill:rgb(175,201,178);" />
<path d="M1400.466,530.697 A974.400,974.400 40.000 0,1 1431.715,527.996 L1434.967,574.282 A928.000,928.000 0.000 0,0 1405.206,576.854 Z" style="stroke-linecap:round;fill:rgb(175,201,178);" />
</g>
<path d="M1500.000,340.000 A1160.000,1160.000 40.000 1,1 1499.790,340.000 L1499.783,300.000 A1200.000,1200.000 0.000 1,0 1500.000,300.000 Z" style="stroke-width:2.0;stroke:rgb(0,0,0);stroke-linecap:round;fill:rgb(0,0,0);" />
<path d="M1500.000,340.000 A1160.000,1160.000 40.000 1,1 1499.790,340.000 L1499.783,300.000 A1200.000,1200.000 0.000 1,0 1500.000,300.000 Z" style="stroke-linecap:round;fill:rgb(255,255,255);" />
<line x1='1500.0' y1='300.0' x2='1500.0' y2='290.0' style="stroke-width:3.0;stroke:rgb(0,0,0);stroke-linecap:round;fill:none;" />
<text x="1510.0" y="285.0" font-size="26.0px" font-family="CMUBright-Roman" style="text-anchor:start;fill:rgb(0,0,0);" transform="rotate(270.0,1510.0,285.0)" >0 Mb</text>
<path d="M1500.000,340.000 A1160.000,1160.000 40.000 1,1 1499.790,340.000 L1499.783,300.000 A1200.000,1200.000 0.000 1,0 1500.000,300.000 Z" style="stroke-width:2.0;stroke:rgb(0,0,0);stroke-linecap:round;fill:none;" />
</g>
<g id="plot0">
<g id="plot0-axis">
</g>
<path d="M1831.555,861.784 A719.200,719.200 40.000 0,1 2212.791,1404.198 L2304.764,1391.836 L1849.890,826.491 Z" style="stroke-linecap:round;fill:rgb(89,60,6);" />
<line x1='1849.9' y1='826.5' x2='2304.8' y2='1391.8' style="stroke-width:1.0;stroke:rgb(0,0,0);stroke-linecap:round;fill:none;" />
<path d="M2212.791,1404.198 A719.200,719.200 40.000 0,1 1988.303,2028.024 L1992.803,2032.890 L2304.764,1391.836 Z" style="stroke-linecap:round;fill:rgb(89,60,6);" />
<line x1='2304.8' y1='1391.8' x2='1992.8' y2='2032.9' style="stroke-width:1.0;stroke:rgb(0,0,0);stroke-linecap:round;fill:none;" />
<path d="M1988.303,2028.024 A719.200,719.200 40.000 0,1 1348.860,2203.140 L1346.074,2216.101 L1992.803,2032.890 Z" style="stroke-linecap:round;fill:rgb(89,60,6);" />
<line x1='1992.8' y1='2032.9' x2='1346.1' y2='2216.1' style="stroke-width:1.0;stroke:rgb(0,0,0);stroke-linecap:round;fill:none;" />
<path d="M1348.860,2203.140 A719.200,719.200 40.000 0,1 837.854,1780.734 L837.854,1780.734 L1346.074,2216.101 Z" style="stroke-linecap:round;fill:rgb(89,60,6);" />
<line x1='1346.1' y1='2216.1' x2='837.9' y2='1780.7' style="stroke-width:1.0;stroke:rgb(0,0,0);stroke-linecap:round;fill:none;" />
<path d="M837.854,1780.734 A719.200,719.200 40.000 0,1 889.534,1119.763 L861.402,1102.240 L837.854,1780.734 Z" style="stroke-linecap:round;fill:rgb(89,60,6);" />
<line x1='837.9' y1='1780.7' x2='861.4' y2='1102.2' style="stroke-width:1.0;stroke:rgb(0,0,0);stroke-linecap:round;fill:none;" />
<path d="M889.534,1119.763 A719.200,719.200 40.000 0,1 1310.035,806.342 L1306.533,793.555 L861.402,1102.240 Z" style="stroke-linecap:round;fill:rgb(89,60,6);" />
<line x1='861.4' y1='1102.2' x2='1306.5' y2='793.6' style="stroke-width:1.0;stroke:rgb(0,0,0);stroke-linecap:round;fill:none;" />
</g>
<g id="plot1">
<g id="plot1-axis">
</g>
<path d="M1719.629,1077.232 A476.414,476.414 40.000 0,1 1972.168,1436.539 L2073.589,1422.907 L1820.860,882.372 Z" style="stroke-linecap:round;fill:rgb(199,234,229);" />
<line x1='1820.9' y1='882.4' x2='2073.6' y2='1422.9' style="stroke-width:0.5;stroke:rgb(89,194,115);stroke-linecap:round;fill:none;" />
<path d="M1972.168,1436.539 A476.414,476.414 40.000 0,1 1823.462,1849.774 L1829.947,1856.787 L2073.589,1422.907 Z" style="stroke-linecap:round;fill:rgb(199,234,229);" />
<line x1='2073.6' y1='1422.9' x2='1829.9' y2='1856.8' style="stroke-width:0.5;stroke:rgb(89,194,115);stroke-linecap:round;fill:none;" />
<line x1='1829.9' y1='1856.8' x2='1618.3' y2='1895.6' style="stroke-width:0.5;stroke:rgb(89,194,115);stroke-linecap:round;fill:none;" />
<line x1='1618.3' y1='1895.6' x2='1406.6' y2='1934.4' style="stroke-width:0.5;stroke:rgb(89,194,115);stroke-linecap:round;fill:none;" />
<path d="M1823.462,1849.774 A476.414,476.414 40.000 0,1 1625.836,1959.495 L1622.852,1948.601 L1829.947,1856.787 Z" style="stroke-linecap:round;fill:rgb(199,234,229);" />
<path d="M1625.836,1959.495 A476.414,476.414 40.000 0,1 1399.881,1965.775 L1406.636,1934.351 L1622.852,1948.601 Z" style="stroke-linecap:round;fill:rgb(1,102,94);" />
<line x1='1829.9' y1='1856.8' x2='1406.6' y2='1934.4' style="stroke-width:0.5;stroke:rgb(89,194,115);stroke-linecap:round;fill:none;" />
<line x1='1406.6' y1='1934.4' x2='1213.4' y2='1818.9' style="stroke-width:0.5;stroke:rgb(89,194,115);stroke-linecap:round;fill:none;" />
<line x1='1213.4' y1='1818.9' x2='1020.1' y2='1703.5' style="stroke-width:0.5;stroke:rgb(89,194,115);stroke-linecap:round;fill:none;" />
<path d="M1399.881,1965.775 A476.414,476.414 40.000 0,1 1196.465,1867.201 L1192.423,1872.092 L1406.636,1934.351 Z" style="stroke-linecap:round;fill:rgb(1,102,94);" />
<path d="M1196.465,1867.201 A476.414,476.414 40.000 0,1 1061.380,1685.964 L1020.105,1703.464 L1192.423,1872.092 Z" style="stroke-linecap:round;fill:rgb(199,234,229);" />
<line x1='1406.6' y1='1934.4' x2='1020.1' y2='1703.5' style="stroke-width:0.5;stroke:rgb(89,194,115);stroke-linecap:round;fill:none;" />
<line x1='1020.1' y1='1703.5' x2='1112.4' y2='1509.7' style="stroke-width:0.5;stroke:rgb(89,194,115);stroke-linecap:round;fill:none;" />
<line x1='1112.4' y1='1509.7' x2='1204.6' y2='1316.0' style="stroke-width:0.5;stroke:rgb(89,194,115);stroke-linecap:round;fill:none;" />
<path d="M1061.380,1685.964 A476.414,476.414 40.000 0,1 1025.036,1462.863 L1066.700,1466.121 L1020.105,1703.464 Z" style="stroke-linecap:round;fill:rgb(199,234,229);" />
<path d="M1025.036,1462.863 A476.414,476.414 40.000 0,1 1095.614,1248.123 L1204.613,1316.014 L1066.700,1466.121 Z" style="stroke-linecap:round;fill:rgb(1,102,94);" />
<line x1='1020.1' y1='1703.5' x2='1204.6' y2='1316.0' style="stroke-width:0.5;stroke:rgb(89,194,115);stroke-linecap:round;fill:none;" />
<line x1='1204.6' y1='1316.0' x2='1260.5' y2='1072.6' style="stroke-width:0.5;stroke:rgb(89,194,115);stroke-linecap:round;fill:none;" />
<line x1='1260.5' y1='1072.6' x2='1316.3' y2='829.2' style="stroke-width:0.5;stroke:rgb(89,194,115);stroke-linecap:round;fill:none;" />
<path d="M1095.614,1248.123 A476.414,476.414 40.000 0,1 1215.289,1118.019 L1188.191,1081.663 L1204.613,1316.014 Z" style="stroke-linecap:round;fill:rgb(1,102,94);" />
<path d="M1215.289,1118.019 A476.414,476.414 40.000 0,1 1374.163,1040.506 L1316.291,829.187 L1188.191,1081.663 Z" style="stroke-linecap:round;fill:rgb(199,234,229);" />
<line x1='1204.6' y1='1316.0' x2='1316.3' y2='829.2' style="stroke-width:0.5;stroke:rgb(89,194,115);stroke-linecap:round;fill:none;" />
</g>
<defs>
<pattern id="checker" width="10" height="10" patternTransform="rotate(45 0 0)" patternUnits="userSpaceOnUse"><line x1="0" y1="0" x2="10" y2="0" style="stroke:black;stroke-width:2" /><line x1="0" y1="0" x2="0" y2="10" style="stroke:black;stroke-width:2" /></pattern>
<pattern id="vline-sparse" width="10" height="10" patternTransform="rotate(0 0 0)" patternUnits="userSpaceOnUse"><line x1="0" y1="0" x2="0" y2="10" style="stroke:black;stroke-width:2" /></pattern>
<pattern id="hline" width="10" height="10" patternTransform="rotate(0 0 0)" patternUnits="userSpaceOnUse"><line x1="0" y1="0" x2="10" y2="0" style="stroke:black;stroke-width:5" /></pattern>
<pattern id="hline-sparse" width="10" height="10" patternTransform="rotate(0 0 0)" patternUnits="userSpaceOnUse"><line x1="0" y1="0" x2="10" y2="0" style="stroke:black;stroke-width:2" /></pattern>
<pattern id="checker" width="10" height="10" patternTransform="rotate(45 0 0)" patternUnits="userSpaceOnUse"><line x1="0" y1="0" x2="10" y2="0" style="stroke:black;stroke-width:5" /><line x1="0" y1="0" x2="0" y2="10" style="stroke:black;stroke-width:4" /></pattern>
<pattern id="vline" width="10" height="10" patternTransform="rotate(0 0 0)" patternUnits="userSpaceOnUse"><line x1="0" y1="0" x2="0" y2="10" style="stroke:black;stroke-width:5" /></pattern>
</defs>
</svg>
