<?xml version="1.0" encoding="utf-8" standalone="no"?>
<!DOCTYPE svg PUBLIC "-//W3C//DTD SVG 1.1//EN" "http://www.w3.org/Graphics/SVG/1.1/DTD/svg11.dtd">
<svg width="3000px" height="3000px" version="1.1" xmlns="http://www.w3.org/2000/svg" xmlns:xlink="http://www.w3.org/1999/xlink">
<g id="bg">
<rect x="0" y="0" width="3000px" height="3000px" style="fill:none;"/></g>
<g id="ideograms">
<g id="highlighttrack_0">
<path d="M1694.962,486.176 A1032.400,1032.400 40.000 0,1 1936.652,564.487 L1917.027,606.532 A986.000,986.000 0.000 0,0 1686.199,531.741 Z" style="stroke-linecap:round;fill:rgb(185,199,186);" />
<path d="M1958.083,574.792 A1032.400,1032.400 40.000 0,1 2175.531,719.290 L2145.170,754.378 A986.000,986.000 0.000 0,0 1937.495,616.374 Z" style="stroke-linecap:round;fill:rgb(185,199,186);" />
<path d="M2174.936,718.776 A1032.400,1032.400 40.000 0,1 2337.429,896.211 L2299.792,923.347 A986.000,986.000 0.000 0,0 2144.602,753.887 Z" style="stroke-linecap:round;fill:rgb(185,199,186);" />
<path d="M2339.722,899.403 A1032.400,1032.400 40.000 0,1 2380.422,960.827 L2340.852,985.060 A986.000,986.000 0.000 0,0 2301.982,926.396 Z" style="stroke-linecap:round;fill:rgb(185,199,186);" />
<path d="M2382.264,963.847 A1032.400,1032.400 40.000 0,1 2401.841,997.475 L2361.309,1020.060 A986.000,986.000 0.000 0,0 2342.612,987.944 Z" style="stroke-linecap:round;fill:rgb(185,199,186);" />
<path d="M2401.459,996.788 A1032.400,1032.400 40.000 0,1 2499.314,1240.728 L2454.401,1252.381 A986.000,986.000 0.000 0,0 2360.944,1019.404 Z" style="stroke-linecap:round;fill:rgb(185,199,186);" />
<path d="M2506.963,1272.239 A1032.400,1032.400 40.000 0,1 2529.310,1420.188 L2483.049,1423.775 A986.000,986.000 0.000 0,0 2461.706,1282.476 Z" style="stroke-linecap:round;fill:rgb(185,199,186);" />
<path d="M2529.888,1428.028 A1032.400,1032.400 40.000 0,1 2532.371,1492.235 L2485.972,1492.584 A986.000,986.000 0.000 0,0 2483.601,1431.262 Z" style="stroke-linecap:round;fill:rgb(185,199,186);" />
<path d="M2532.320,1512.871 A1032.400,1032.400 40.000 0,1 2520.792,1654.383 L2474.913,1647.445 A986.000,986.000 0.000 0,0 2485.923,1512.292 Z" style="stroke-linecap:round;fill:rgb(185,199,186);" />
<path d="M2154.641,2298.308 A1032.400,1032.400 40.000 0,1 1994.524,2406.254 L1972.298,2365.523 A986.000,986.000 0.000 0,0 2125.219,2262.429 Z" style="stroke-linecap:round;fill:rgb(185,199,186);" />
<path d="M1987.263,2410.178 A1032.400,1032.400 40.000 0,1 1808.115,2485.350 L1794.268,2441.065 A986.000,986.000 0.000 0,0 1965.363,2369.272 Z" style="stroke-linecap:round;fill:rgb(185,199,186);" />
<path d="M1167.231,2477.299 A1032.400,1032.400 40.000 0,1 1100.545,2451.990 L1118.498,2409.204 A986.000,986.000 0.000 0,0 1182.186,2433.376 Z" style="stroke-linecap:round;fill:rgb(185,199,186);" />
<path d="M1107.260,2454.780 A1032.400,1032.400 40.000 0,1 1062.995,2435.348 L1082.635,2393.310 A986.000,986.000 0.000 0,0 1124.911,2411.869 Z" style="stroke-linecap:round;fill:rgb(185,199,186);" />
<path d="M547.595,1898.466 A1032.400,1032.400 40.000 0,1 514.680,1808.211 L558.964,1794.359 A986.000,986.000 0.000 0,0 590.400,1880.557 Z" style="stroke-linecap:round;fill:rgb(185,199,186);" />
<path d="M480.913,1665.263 A1032.400,1032.400 40.000 0,1 467.904,1525.060 L514.291,1523.934 A986.000,986.000 0.000 0,0 526.715,1657.835 Z" style="stroke-linecap:round;fill:rgb(185,199,186);" />
<path d="M475.898,1369.367 A1032.400,1032.400 40.000 0,1 484.277,1315.185 L529.927,1323.491 A986.000,986.000 0.000 0,0 521.925,1375.238 Z" style="stroke-linecap:round;fill:rgb(185,199,186);" />
<path d="M483.823,1317.699 A1032.400,1032.400 40.000 0,1 498.262,1250.258 L543.284,1261.482 A986.000,986.000 0.000 0,0 529.494,1325.892 Z" style="stroke-linecap:round;fill:rgb(185,199,186);" />
<path d="M498.262,1250.258 A1032.400,1032.400 40.000 0,1 515.917,1187.862 L560.145,1201.891 A986.000,986.000 0.000 0,0 543.284,1261.482 Z" style="stroke-linecap:round;fill:rgb(185,199,186);" />
<path d="M546.910,1103.176 A1032.400,1032.400 40.000 0,1 565.276,1061.661 L607.286,1081.362 A986.000,986.000 0.000 0,0 589.746,1121.010 Z" style="stroke-linecap:round;fill:rgb(185,199,186);" />
<path d="M564.943,1062.373 A1032.400,1032.400 40.000 0,1 599.114,995.764 L639.603,1018.427 A986.000,986.000 0.000 0,0 606.968,1082.042 Z" style="stroke-linecap:round;fill:rgb(185,199,186);" />
<path d="M681.942,870.214 A1032.400,1032.400 40.000 0,1 711.178,833.960 L746.631,863.894 A986.000,986.000 0.000 0,0 718.708,898.519 Z" style="stroke-linecap:round;fill:rgb(185,199,186);" />
<path d="M710.671,834.560 A1032.400,1032.400 40.000 0,1 789.086,751.368 L821.037,785.014 A986.000,986.000 0.000 0,0 746.147,864.468 Z" style="stroke-linecap:round;fill:rgb(185,199,186);" />
<path d="M988.995,602.936 A1032.400,1032.400 40.000 0,1 1040.503,575.494 L1061.154,617.045 A986.000,986.000 0.000 0,0 1011.961,643.254 Z" style="stroke-linecap:round;fill:rgb(185,199,186);" />
<path d="M1039.799,575.844 A1032.400,1032.400 40.000 0,1 1128.795,536.643 L1145.479,579.940 A986.000,986.000 0.000 0,0 1060.482,617.379 Z" style="stroke-linecap:round;fill:rgb(185,199,186);" />
</g>
<g id="highlighttrack_1">
<path d="M1681.094,542.576 A974.400,974.400 40.000 1,1 1416.255,529.205 L1420.243,575.434 A928.000,928.000 0.000 1,0 1672.470,588.168 Z" style="stroke-linecap:round;fill:rgb(175,201,178);" />
<path d="M2463.052,1648.277 A974.400,974.400 40.000 0,1 2424.026,1809.243 L2380.025,1794.517 A928.000,928.000 0.000 0,0 2417.192,1641.216 Z" style="stroke-linecap:round;fill:rgb(175,201,178);" />
<path d="M2413.536,1838.979 A974.400,974.400 40.000 0,1 2306.853,2046.300 L2268.431,2020.286 A928.000,928.000 0.000 0,0 2370.035,1822.837 Z" style="stroke-linecap:round;fill:rgb(175,201,178);" />
<path d="M2297.482,2059.891 A974.400,974.400 40.000 0,1 2170.435,2207.087 L2138.509,2173.416 A928.000,928.000 0.000 0,0 2259.507,2033.230 Z" style="stroke-linecap:round;fill:rgb(175,201,178);" />
<path d="M2169.357,2208.107 A974.400,974.400 40.000 0,1 2138.003,2236.484 L2107.621,2201.413 A928.000,928.000 0.000 0,0 2137.483,2174.388 Z" style="stroke-linecap:round;fill:rgb(175,201,178);" />
<path d="M1417.004,2470.859 A974.400,974.400 40.000 0,1 1212.920,2431.150 L1226.591,2386.810 A928.000,928.000 0.000 0,0 1420.956,2424.628 Z" style="stroke-linecap:round;fill:rgb(175,201,178);" />
<path d="M1032.938,2355.166 A974.400,974.400 40.000 0,1 987.252,2328.580 L1011.668,2289.124 A928.000,928.000 0.000 0,0 1055.179,2314.443 Z" style="stroke-linecap:round;fill:rgb(175,201,178);" />
<path d="M989.936,2330.235 A974.400,974.400 40.000 0,1 954.854,2307.633 L980.813,2269.174 A928.000,928.000 0.000 0,0 1014.225,2290.700 Z" style="stroke-linecap:round;fill:rgb(175,201,178);" />
<path d="M903.465,2270.455 A974.400,974.400 40.000 0,1 709.945,2070.322 L747.566,2043.164 A928.000,928.000 0.000 0,0 931.872,2233.767 Z" style="stroke-linecap:round;fill:rgb(175,201,178);" />
<path d="M698.598,2054.265 A974.400,974.400 40.000 0,1 672.941,2015.197 L712.325,1990.664 A928.000,928.000 0.000 0,0 736.760,2027.872 Z" style="stroke-linecap:round;fill:rgb(175,201,178);" />
<path d="M661.011,1995.533 A974.400,974.400 40.000 0,1 632.569,1943.867 L673.875,1922.731 A928.000,928.000 0.000 0,0 700.963,1971.936 Z" style="stroke-linecap:round;fill:rgb(175,201,178);" />
<path d="M525.649,1509.743 A974.400,974.400 40.000 0,1 525.887,1476.357 L572.273,1477.483 A928.000,928.000 0.000 0,0 572.046,1509.279 Z" style="stroke-linecap:round;fill:rgb(175,201,178);" />
<path d="M526.891,1449.851 A974.400,974.400 40.000 0,1 531.959,1388.859 L578.056,1394.152 A928.000,928.000 0.000 0,0 573.230,1452.239 Z" style="stroke-linecap:round;fill:rgb(175,201,178);" />
<path d="M847.127,776.666 A974.400,974.400 40.000 0,1 883.857,745.134 L913.197,781.080 A928.000,928.000 0.000 0,0 878.216,811.110 Z" style="stroke-linecap:round;fill:rgb(175,201,178);" />
<path d="M888.034,741.744 A974.400,974.400 40.000 0,1 986.455,671.913 L1010.910,711.346 A928.000,928.000 0.000 0,0 917.175,777.851 Z" style="stroke-linecap:round;fill:rgb(175,201,178);" />
<path d="M1211.317,569.346 A974.400,974.400 40.000 0,1 1375.315,533.610 L1381.253,579.629 A928.000,928.000 0.000 0,0 1225.064,613.663 Z" style="stroke-linecap:round;fill:rgb(175,201,178);" />
</g>
<path d="M1500.000,340.000 A1160.000,1160.000 40.000 1,1 1499.790,340.000 L1499.783,300.000 A1200.000,1200.000 0.000 1,0 1500.000,300.000 Z" style="stroke-width:2.0;stroke:rgb(0,0,0);stroke-linecap:round;fill:rgb(0,0,0);" />
<path d="M1500.000,340.000 A1160.000,1160.000 40.000 1,1 1499.790,340.000 L1499.783,300.000 A1200.000,1200.000 0.000 1,0 1500.000,300.000 Z" style="stroke-linecap:round;fill:rgb(255,255,255);" />
<line x1='1500.0' y1='300.0' x2='1500.0' y2='290.0' style="stroke-width:3.0;stroke:rgb(0,0,0);stroke-linecap:round;fill:none;" />
<text x="1510.0" y="285.0" font-size="26.0px" font-family="CMUBright-Roman" style="text-anchor:start;fill:rgb(0,0,0);" transform="rotate(270.0,1510.0,285.0)" >0 Mb</text>
<path d="M1500.000,340.000 A1160.000,1160.000 40.000 1,1 1499.790,340.000 L1499.783,300.000 A1200.000,1200.000 0.000 1,0 1500.000,300.000 Z" style="stroke-width:2.0;stroke:rgb(0,0,0);stroke-linecap:round;fill:none;" />
</g>
<g id="plot0">
<g id="plot0-axis">
</g>
<path d="M1829.562,860.752 A719.200,719.200 40.000 0,1 2211.863,1397.529 L2251.228,1391.863 L1838.674,843.077 Z" style="stroke-linecap:round;fill:rgb(89,60,6);" />
<line x1='1838.7' y1='843.1' x2='2251.2' y2='1391.9' style="stroke-width:1.0;stroke:rgb(0,0,0);stroke-linecap:round;fill:none;" />
<path d="M2211.863,1397.529 A719.200,719.200 40.000 0,1 1996.482,2020.341 L2060.544,2087.482 L2251.228,1391.863 Z" style="stroke-linecap:round;fill:rgb(89,60,6);" />
<line x1='2251.2' y1='1391.9' x2='2060.5' y2='2087.5' style="stroke-width:1.0;stroke:rgb(0,0,0);stroke-linecap:round;fill:none;" />
<path d="M1996.482,2020.341 A719.200,719.200 40.000 0,1 1364.253,2206.273 L1357.998,2238.820 L2060.544,2087.482 Z" style="stroke-linecap:round;fill:rgb(89,60,6);" />
<line x1='2060.5' y1='2087.5' x2='1358.0' y2='2238.8' style="stroke-width:1.0;stroke:rgb(0,0,0);stroke-linecap:round;fill:none;" />
<path d="M1364.253,2206.273 A719.200,719.200 40.000 0,1 845.998,1799.216 L827.915,1807.490 L1357.998,2238.820 Z" style="stroke-linecap:round;fill:rgb(89,60,6);" />
<line x1='1358.0' y1='2238.8' x2='827.9' y2='1807.5' style="stroke-width:1.0;stroke:rgb(0,0,0);stroke-linecap:round;fill:none;" />
<path d="M845.998,1799.216 A719.200,719.200 40.000 0,1 876.845,1140.937 L859.615,1131.009 L827.915,1807.490 Z" style="stroke-linecap:round;fill:rgb(89,60,6);" />
<line x1='827.9' y1='1807.5' x2='859.6' y2='1131.0' style="stroke-width:1.0;stroke:rgb(0,0,0);stroke-linecap:round;fill:none;" />
<path d="M876.845,1140.937 A719.200,719.200 40.000 0,1 1297.081,810.020 L1297.081,810.020 L859.615,1131.009 Z" style="stroke-linecap:round;fill:rgb(89,60,6);" />
<line x1='859.6' y1='1131.0' x2='1297.1' y2='810.0' style="stroke-width:1.0;stroke:rgb(0,0,0);stroke-linecap:round;fill:none;" />
</g>
<g id="plot1">
<g id="plot1-axis">
</g>
<path d="M1733.020,1048.014 A508.517,508.517 40.000 0,1 2003.329,1427.547 L2071.403,1417.748 L1818.931,881.373 Z" style="stroke-linecap:round;fill:rgb(199,234,229);" />
<line x1='1818.9' y1='881.4' x2='2071.4' y2='1417.7' style="stroke-width:0.5;stroke:rgb(89,194,115);stroke-linecap:round;fill:none;" />
<line x1='2071.4' y1='1417.7' x2='1917.1' y2='1596.6' style="stroke-width:0.5;stroke:rgb(89,194,115);stroke-linecap:round;fill:none;" />
<line x1='1917.1' y1='1596.6' x2='1762.9' y2='1775.5' style="stroke-width:0.5;stroke:rgb(89,194,115);stroke-linecap:round;fill:none;" />
<path d="M2003.329,1427.547 A508.517,508.517 40.000 0,1 1980.591,1666.198 L1952.726,1656.562 L2071.403,1417.748 Z" style="stroke-linecap:round;fill:rgb(199,234,229);" />
<path d="M1980.591,1666.198 A508.517,508.517 40.000 0,1 1851.042,1867.912 L1762.857,1775.489 L1952.726,1656.562 Z" style="stroke-linecap:round;fill:rgb(1,102,94);" />
<line x1='2071.4' y1='1417.7' x2='1762.9' y2='1775.5' style="stroke-width:0.5;stroke:rgb(89,194,115);stroke-linecap:round;fill:none;" />
<path d="M1851.042,1867.912 A508.517,508.517 40.000 0,1 1404.019,1999.377 L1434.316,1841.745 L1762.857,1775.489 Z" style="stroke-linecap:round;fill:rgb(1,102,94);" />
<line x1='1762.9' y1='1775.5' x2='1434.3' y2='1841.7' style="stroke-width:0.5;stroke:rgb(89,194,115);stroke-linecap:round;fill:none;" />
<line x1='1434.3' y1='1841.7' x2='1199.3' y2='1793.4' style="stroke-width:0.5;stroke:rgb(89,194,115);stroke-linecap:round;fill:none;" />
<line x1='1199.3' y1='1793.4' x2='964.2' y2='1745.1' style="stroke-width:0.5;stroke:rgb(89,194,115);stroke-linecap:round;fill:none;" />
<path d="M1404.019,1999.377 A508.517,508.517 40.000 0,1 1185.896,1899.911 L1210.557,1868.512 L1434.316,1841.745 Z" style="stroke-linecap:round;fill:rgb(1,102,94);" />
<path d="M1185.896,1899.911 A508.517,508.517 40.000 0,1 1037.582,1711.564 L964.229,1745.124 L1210.557,1868.512 Z" style="stroke-linecap:round;fill:rgb(199,234,229);" />
<line x1='1434.3' y1='1841.7' x2='964.2' y2='1745.1' style="stroke-width:0.5;stroke:rgb(89,194,115);stroke-linecap:round;fill:none;" />
<line x1='964.2' y1='1745.1' x2='1031.1' y2='1506.7' style="stroke-width:0.5;stroke:rgb(89,194,115);stroke-linecap:round;fill:none;" />
<line x1='1031.1' y1='1506.7' x2='1098.0' y2='1268.3' style="stroke-width:0.5;stroke:rgb(89,194,115);stroke-linecap:round;fill:none;" />
<path d="M1037.582,1711.564 A508.517,508.517 40.000 0,1 992.040,1476.197 L973.981,1475.351 L964.229,1745.124 Z" style="stroke-linecap:round;fill:rgb(199,234,229);" />
<path d="M992.040,1476.197 A508.517,508.517 40.000 0,1 1059.392,1246.121 L1097.956,1268.342 L973.981,1475.351 Z" style="stroke-linecap:round;fill:rgb(1,102,94);" />
<line x1='964.2' y1='1745.1' x2='1098.0' y2='1268.3' style="stroke-width:0.5;stroke:rgb(89,194,115);stroke-linecap:round;fill:none;" />
<path d="M1059.392,1246.121 A508.517,508.517 40.000 0,1 1356.524,1012.143 L1380.424,1093.408 L1097.956,1268.342 Z" style="stroke-linecap:round;fill:rgb(1,102,94);" />
<line x1='1098.0' y1='1268.3' x2='1380.4' y2='1093.4' style="stroke-width:0.5;stroke:rgb(89,194,115);stroke-linecap:round;fill:none;" />
</g>
<defs>
<pattern id="checker" width="10" height="10" patternTransform="rotate(45 0 0)" patternUnits="userSpaceOnUse"><line x1="0" y1="0" x2="10" y2="0" style="stroke:black;stroke-width:5" /><line x1="0" y1="0" x2="0" y2="10" style="stroke:black;stroke-width:4" /></pattern>
<pattern id="hline-sparse" width="10" height="10" patternTransform="rotate(0 0 0)" patternUnits="userSpaceOnUse"><line x1="0" y1="0" x2="10" y2="0" style="stroke:black;stroke-width:2" /></pattern>
<pattern id="vline" width="10" height="10" patternTransform="rotate(0 0 0)" patternUnits="userSpaceOnUse"><line x1="0" y1="0" x2="0" y2="10" style="stroke:black;stroke-width:5" /></pattern>
<pattern id="hline" width="10" height="10" patternTransform="rotate(0 0 0)" patternUnits="userSpaceOnUse"><line x1="0" y1="0" x2="10" y2="0" style="stroke:black;stroke-width:5" /></pattern>
<pattern id="checker" width="10" height="10" patternTransform="rotate(45 0 0)" patternUnits="userSpaceOnUse"><line x1="0" y1="0" x2="10" y2="0" style="stroke:black;stroke-width:2" /><line x1="0" y1="0" x2="0" y2="10" style="stroke:black;stroke-width:2" /></pattern>
<pattern id="vline-sparse" width="10" height="10" patternTransform="rotate(0 0 0)" patternUnits="userSpaceOnUse"><line x1="0" y1="0" x2="0" y2="10" style="stroke:black;stroke-width:2" /></pattern>
</defs>
</svg>
