<?xml version="1.0" encoding="utf-8" standalone="no"?>
<!DOCTYPE svg PUBLIC "-//W3C//DTD SVG 1.1//EN" "http://www.w3.org/Graphics/SVG/1.1/DTD/svg11.dtd">
<svg width="3000px" height="3000px" version="1.1" xmlns="http://www.w3.org/2000/svg" xmlns:xlink="http://www.w3.org/1999/xlink">
<g id="bg">
<rect x="0" y="0" width="3000px" height="3000px" style="fill:none;"/></g>
<g id="ideograms">
<g id="highlighttrack_0">
<path d="M1903.299,549.632 A1032.400,1032.400 40.000 0,1 1952.785,572.188 L1932.435,613.887 A986.000,986.000 0.000 0,0 1885.173,592.345 Z" style="stroke-linecap:round;fill:rgb(185,199,186);" />
<path d="M1951.507,571.565 A1032.400,1032.400 40.000 0,1 1989.005,590.756 L1967.027,631.621 A986.000,986.000 0.000 0,0 1931.214,613.293 Z" style="stroke-linecap:round;fill:rgb(185,199,186);" />
<path d="M1989.318,590.925 A1032.400,1032.400 40.000 0,1 2026.453,611.914 L2002.792,651.828 A986.000,986.000 0.000 0,0 1967.326,631.782 Z" style="stroke-linecap:round;fill:rgb(185,199,186);" />
<path d="M2040.605,620.457 A1032.400,1032.400 40.000 0,1 2264.377,806.042 L2230.023,837.231 A986.000,986.000 0.000 0,0 2016.308,659.987 Z" style="stroke-linecap:round;fill:rgb(185,199,186);" />
<path d="M2384.484,967.518 A1032.400,1032.400 40.000 0,1 2450.125,1096.127 L2407.422,1114.279 A986.000,986.000 0.000 0,0 2344.732,991.450 Z" style="stroke-linecap:round;fill:rgb(185,199,186);" />
<path d="M2454.381,1106.292 A1032.400,1032.400 40.000 0,1 2492.429,1215.509 L2447.825,1228.295 A986.000,986.000 0.000 0,0 2411.488,1123.987 Z" style="stroke-linecap:round;fill:rgb(185,199,186);" />
<path d="M2492.036,1214.142 A1032.400,1032.400 40.000 0,1 2502.490,1253.294 L2457.434,1264.382 A986.000,986.000 0.000 0,0 2447.450,1226.989 Z" style="stroke-linecap:round;fill:rgb(185,199,186);" />
<path d="M2478.648,1828.782 A1032.400,1032.400 40.000 0,1 2423.444,1961.629 L2381.941,1940.881 A986.000,986.000 0.000 0,0 2434.664,1814.006 Z" style="stroke-linecap:round;fill:rgb(185,199,186);" />
<path d="M2420.162,1968.136 A1032.400,1032.400 40.000 0,1 2309.880,2140.269 L2273.481,2111.493 A986.000,986.000 0.000 0,0 2378.807,1947.096 Z" style="stroke-linecap:round;fill:rgb(185,199,186);" />
<path d="M2309.660,2140.547 A1032.400,1032.400 40.000 0,1 2215.070,2244.664 L2182.932,2211.196 A986.000,986.000 0.000 0,0 2273.270,2111.759 Z" style="stroke-linecap:round;fill:rgb(185,199,186);" />
<path d="M2215.583,2244.171 A1032.400,1032.400 40.000 0,1 2150.884,2301.374 L2121.630,2265.357 A986.000,986.000 0.000 0,0 2183.422,2210.725 Z" style="stroke-linecap:round;fill:rgb(185,199,186);" />
<path d="M2151.435,2300.926 A1032.400,1032.400 40.000 0,1 2121.632,2324.271 L2093.694,2287.225 A986.000,986.000 0.000 0,0 2122.157,2264.929 Z" style="stroke-linecap:round;fill:rgb(185,199,186);" />
<path d="M2121.206,2324.592 A1032.400,1032.400 40.000 0,1 2072.048,2359.425 L2046.338,2320.799 A986.000,986.000 0.000 0,0 2093.287,2287.532 Z" style="stroke-linecap:round;fill:rgb(185,199,186);" />
<path d="M2072.640,2359.031 A1032.400,1032.400 40.000 0,1 2005.364,2400.254 L1982.651,2359.793 A986.000,986.000 0.000 0,0 2046.903,2320.423 Z" style="stroke-linecap:round;fill:rgb(185,199,186);" />
<path d="M2006.448,2399.644 A1032.400,1032.400 40.000 0,1 1939.162,2434.337 L1919.424,2392.345 A986.000,986.000 0.000 0,0 1983.687,2359.211 Z" style="stroke-linecap:round;fill:rgb(185,199,186);" />
<path d="M1903.629,2450.228 A1032.400,1032.400 40.000 0,1 1822.799,2480.638 L1808.292,2436.564 A986.000,986.000 0.000 0,0 1885.488,2407.521 Z" style="stroke-linecap:round;fill:rgb(185,199,186);" />
<path d="M1822.799,2480.638 A1032.400,1032.400 40.000 0,1 1692.265,2514.339 L1683.623,2468.751 A986.000,986.000 0.000 0,0 1808.292,2436.564 Z" style="stroke-linecap:round;fill:rgb(185,199,186);" />
<path d="M1676.700,2517.166 A1032.400,1032.400 40.000 0,1 1514.400,2532.300 L1513.753,2485.904 A986.000,986.000 0.000 0,0 1668.758,2471.451 Z" style="stroke-linecap:round;fill:rgb(185,199,186);" />
<path d="M1515.111,2532.289 A1032.400,1032.400 40.000 0,1 1417.084,2529.065 L1420.811,2482.815 A986.000,986.000 0.000 0,0 1514.432,2485.894 Z" style="stroke-linecap:round;fill:rgb(185,199,186);" />
<path d="M1417.261,2529.079 A1032.400,1032.400 40.000 0,1 994.642,2400.257 L1017.355,2359.796 A986.000,986.000 0.000 0,0 1420.980,2482.828 Z" style="stroke-linecap:round;fill:rgb(185,199,186);" />
<path d="M991.081,2398.249 A1032.400,1032.400 40.000 0,1 921.758,2355.269 L947.746,2316.830 A986.000,986.000 0.000 0,0 1013.954,2357.878 Z" style="stroke-linecap:round;fill:rgb(185,199,186);" />
<path d="M888.639,2331.918 A1032.400,1032.400 40.000 0,1 814.444,2271.921 L845.255,2237.228 A986.000,986.000 0.000 0,0 916.115,2294.528 Z" style="stroke-linecap:round;fill:rgb(185,199,186);" />
<path d="M803.352,2261.926 A1032.400,1032.400 40.000 0,1 759.722,2219.609 L792.992,2187.267 A986.000,986.000 0.000 0,0 834.662,2227.682 Z" style="stroke-linecap:round;fill:rgb(185,199,186);" />
<path d="M759.845,2219.737 A1032.400,1032.400 40.000 0,1 631.960,2058.888 L670.973,2033.770 A986.000,986.000 0.000 0,0 793.111,2187.389 Z" style="stroke-linecap:round;fill:rgb(185,199,186);" />
<path d="M630.136,2056.046 A1032.400,1032.400 40.000 0,1 584.479,1977.149 L625.626,1955.704 A986.000,986.000 0.000 0,0 669.231,2031.055 Z" style="stroke-linecap:round;fill:rgb(185,199,186);" />
<path d="M577.754,1964.018 A1032.400,1032.400 40.000 0,1 549.321,1902.567 L592.049,1884.474 A986.000,986.000 0.000 0,0 619.203,1943.163 Z" style="stroke-linecap:round;fill:rgb(185,199,186);" />
<path d="M548.768,1901.257 A1032.400,1032.400 40.000 0,1 539.699,1879.041 L582.859,1862.005 A986.000,986.000 0.000 0,0 591.520,1883.223 Z" style="stroke-linecap:round;fill:rgb(185,199,186);" />
<path d="M540.419,1880.859 A1032.400,1032.400 40.000 0,1 470.356,1424.618 L516.632,1428.006 A986.000,986.000 0.000 0,0 583.546,1863.742 Z" style="stroke-linecap:round;fill:rgb(185,199,186);" />
<path d="M470.343,1424.795 A1032.400,1032.400 40.000 0,1 481.948,1328.477 L527.703,1336.186 A986.000,986.000 0.000 0,0 516.620,1428.175 Z" style="stroke-linecap:round;fill:rgb(185,199,186);" />
<path d="M481.830,1329.178 A1032.400,1032.400 40.000 0,1 525.209,1159.954 L569.019,1175.237 A986.000,986.000 0.000 0,0 527.591,1336.855 Z" style="stroke-linecap:round;fill:rgb(185,199,186);" />
<path d="M1028.612,581.499 A1032.400,1032.400 40.000 0,1 1249.236,498.518 L1260.506,543.528 A986.000,986.000 0.000 0,0 1049.798,622.780 Z" style="stroke-linecap:round;fill:rgb(185,199,186);" />
<path d="M1291.864,488.798 A1032.400,1032.400 40.000 0,1 1447.225,468.950 L1449.597,515.289 A986.000,986.000 0.000 0,0 1301.219,534.245 Z" style="stroke-linecap:round;fill:rgb(185,199,186);" />
</g>
<g id="highlighttrack_1">
<path d="M1500.000,525.600 A974.400,974.400 40.000 1,1 1499.824,525.600 L1499.832,572.000 A928.000,928.000 0.000 1,0 1500.000,572.000 Z" style="stroke-linecap:round;fill:rgb(175,201,178);" />
<path d="M1505.536,525.616 A974.400,974.400 40.000 0,1 1582.942,529.136 L1578.992,575.368 A928.000,928.000 0.000 0,0 1505.273,572.015 Z" style="stroke-linecap:round;fill:rgb(175,201,178);" />
<path d="M1585.115,529.325 A974.400,974.400 40.000 0,1 1641.094,535.869 L1634.375,581.780 A928.000,928.000 0.000 0,0 1581.062,575.547 Z" style="stroke-linecap:round;fill:rgb(175,201,178);" />
<path d="M1681.790,542.708 A974.400,974.400 40.000 0,1 1758.736,560.579 L1746.415,605.314 A928.000,928.000 0.000 0,0 1673.133,588.293 Z" style="stroke-linecap:round;fill:rgb(175,201,178);" />
<path d="M1775.032,565.220 A974.400,974.400 40.000 0,1 1849.849,590.571 L1833.189,633.877 A928.000,928.000 0.000 0,0 1761.935,609.734 Z" style="stroke-linecap:round;fill:rgb(175,201,178);" />
<path d="M2236.901,862.480 A974.400,974.400 40.000 0,1 2305.853,952.226 L2267.479,978.311 A928.000,928.000 0.000 0,0 2201.810,892.838 Z" style="stroke-linecap:round;fill:rgb(175,201,178);" />
<path d="M2458.686,1325.713 A974.400,974.400 40.000 0,1 2474.391,1495.888 L2427.992,1496.084 A928.000,928.000 0.000 0,0 2413.035,1334.013 Z" style="stroke-linecap:round;fill:rgb(175,201,178);" />
<path d="M2474.391,1495.721 A974.400,974.400 40.000 0,1 2430.481,1789.241 L2386.172,1775.468 A928.000,928.000 0.000 0,0 2427.991,1495.924 Z" style="stroke-linecap:round;fill:rgb(175,201,178);" />
<path d="M599.233,1128.416 A974.400,974.400 40.000 0,1 624.200,1072.882 L665.905,1093.221 A928.000,928.000 0.000 0,0 642.127,1146.111 Z" style="stroke-linecap:round;fill:rgb(175,201,178);" />
<path d="M631.988,1057.270 A974.400,974.400 40.000 0,1 658.275,1009.128 L698.357,1032.503 A928.000,928.000 0.000 0,0 673.322,1078.352 Z" style="stroke-linecap:round;fill:rgb(175,201,178);" />
<path d="M667.199,994.136 A974.400,974.400 40.000 0,1 688.807,960.166 L727.435,985.872 A928.000,928.000 0.000 0,0 706.856,1018.225 Z" style="stroke-linecap:round;fill:rgb(175,201,178);" />
<path d="M689.737,958.770 A974.400,974.400 40.000 0,1 707.775,932.695 L745.500,959.710 A928.000,928.000 0.000 0,0 728.321,984.543 Z" style="stroke-linecap:round;fill:rgb(175,201,178);" />
<path d="M757.091,869.491 A974.400,974.400 40.000 0,1 793.747,828.686 L827.378,860.654 A928.000,928.000 0.000 0,0 792.468,899.515 Z" style="stroke-linecap:round;fill:rgb(175,201,178);" />
<path d="M805.880,816.149 A974.400,974.400 40.000 0,1 845.460,778.174 L876.629,812.547 A928.000,928.000 0.000 0,0 838.933,848.713 Z" style="stroke-linecap:round;fill:rgb(175,201,178);" />
<path d="M848.947,775.027 A974.400,974.400 40.000 0,1 895.498,735.780 L924.284,772.171 A928.000,928.000 0.000 0,0 879.950,809.550 Z" style="stroke-linecap:round;fill:rgb(175,201,178);" />
<path d="M929.078,710.378 A974.400,974.400 40.000 0,1 966.388,684.701 L991.798,723.524 A928.000,928.000 0.000 0,0 956.265,747.979 Z" style="stroke-linecap:round;fill:rgb(175,201,178);" />
<path d="M966.528,684.609 A974.400,974.400 40.000 0,1 1003.262,661.724 L1026.916,701.642 A928.000,928.000 0.000 0,0 991.931,723.437 Z" style="stroke-linecap:round;fill:rgb(175,201,178);" />
</g>
<path d="M1500.000,340.000 A1160.000,1160.000 40.000 1,1 1499.790,340.000 L1499.783,300.000 A1200.000,1200.000 0.000 1,0 1500.000,300.000 Z" style="stroke-width:2.0;stroke:rgb(0,0,0);stroke-linecap:round;fill:rgb(0,0,0);" />
<path d="M1500.000,340.000 A1160.000,1160.000 40.000 1,1 1499.790,340.000 L1499.783,300.000 A1200.000,1200.000 0.000 1,0 1500.000,300.000 Z" style="stroke-linecap:round;fill:rgb(255,255,255);" />
<line x1='1500.0' y1='300.0' x2='1500.0' y2='290.0' style="stroke-width:3.0;stroke:rgb(0,0,0);stroke-linecap:round;fill:none;" />
<text x="1510.0" y="285.0" font-size="26.0px" font-family="CMUBright-Roman" style="text-anchor:start;fill:rgb(0,0,0);" transform="rotate(270.0,1510.0,285.0)" >0 Mb</text>
<path d="M1500.000,340.000 A1160.000,1160.000 40.000 1,1 1499.790,340.000 L1499.783,300.000 A1200.000,1200.000 0.000 1,0 1500.000,300.000 Z" style="stroke-width:2.0;stroke:rgb(0,0,0);stroke-linecap:round;fill:none;" />
</g>
<g id="plot0">
<g id="plot0-axis">
</g>
<path d="M1800.148,846.425 A719.200,719.200 40.000 0,1 2191.303,1301.636 L2243.337,1286.706 L1829.194,783.176 Z" style="stroke-linecap:round;fill:rgb(89,60,6);" />
<line x1='1829.2' y1='783.2' x2='2243.3' y2='1286.7' style="stroke-width:1.0;stroke:rgb(0,0,0);stroke-linecap:round;fill:none;" />
<path d="M2191.303,1301.636 A719.200,719.200 40.000 0,1 2101.025,1894.991 L2178.576,1945.958 L2243.337,1286.706 Z" style="stroke-linecap:round;fill:rgb(89,60,6);" />
<line x1='2243.3' y1='1286.7' x2='2178.6' y2='1946.0' style="stroke-width:1.0;stroke:rgb(0,0,0);stroke-linecap:round;fill:none;" />
<path d="M2101.025,1894.991 A719.200,719.200 40.000 0,1 1592.183,2213.268 L1601.104,2282.294 L2178.576,1945.958 Z" style="stroke-linecap:round;fill:rgb(89,60,6);" />
<line x1='2178.6' y1='1946.0' x2='1601.1' y2='2282.3' style="stroke-width:1.0;stroke:rgb(0,0,0);stroke-linecap:round;fill:none;" />
<path d="M1592.183,2213.268 A719.200,719.200 40.000 0,1 1019.144,2034.814 L962.268,2098.072 L1601.104,2282.294 Z" style="stroke-linecap:round;fill:rgb(89,60,6);" />
<line x1='1601.1' y1='2282.3' x2='962.3' y2='2098.1' style="stroke-width:1.0;stroke:rgb(0,0,0);stroke-linecap:round;fill:none;" />
<path d="M1019.144,2034.814 A719.200,719.200 40.000 0,1 780.980,1483.908 L703.666,1482.177 L962.268,2098.072 Z" style="stroke-linecap:round;fill:rgb(89,60,6);" />
<line x1='962.3' y1='2098.1' x2='703.7' y2='1482.2' style="stroke-width:1.0;stroke:rgb(0,0,0);stroke-linecap:round;fill:none;" />
<path d="M780.980,1483.908 A719.200,719.200 40.000 0,1 1043.553,944.208 L1004.289,896.398 L703.666,1482.177 Z" style="stroke-linecap:round;fill:rgb(89,60,6);" />
<line x1='703.7' y1='1482.2' x2='1004.3' y2='896.4' style="stroke-width:1.0;stroke:rgb(0,0,0);stroke-linecap:round;fill:none;" />
<path d="M1043.553,944.208 A719.200,719.200 40.000 0,1 1407.815,786.733 L1407.815,786.733 L1004.289,896.398 Z" style="stroke-linecap:round;fill:rgb(89,60,6);" />
<line x1='1004.3' y1='896.4' x2='1407.8' y2='786.7' style="stroke-width:1.0;stroke:rgb(0,0,0);stroke-linecap:round;fill:none;" />
</g>
<g id="plot1">
<g id="plot1-axis">
</g>
<line x1='1645.2' y1='1183.8' x2='1768.7' y2='1285.6' style="stroke-width:0.5;stroke:rgb(89,194,115);stroke-linecap:round;fill:none;" />
<line x1='1768.7' y1='1285.6' x2='1892.2' y2='1387.5' style="stroke-width:0.5;stroke:rgb(89,194,115);stroke-linecap:round;fill:none;" />
<path d="M1657.241,1157.607 A376.772,376.772 40.000 0,1 1785.764,1254.447 L1786.697,1253.646 L1645.233,1183.754 Z" style="stroke-linecap:round;fill:rgb(1,102,94);" />
<path d="M1785.764,1254.447 A376.772,376.772 40.000 0,1 1862.158,1396.082 L1892.178,1387.468 L1786.697,1253.646 Z" style="stroke-linecap:round;fill:rgb(199,234,229);" />
<line x1='1645.2' y1='1183.8' x2='1892.2' y2='1387.5' style="stroke-width:0.5;stroke:rgb(89,194,115);stroke-linecap:round;fill:none;" />
<path d="M1862.158,1396.082 A376.772,376.772 40.000 0,1 1814.863,1706.927 L1858.945,1735.897 L1892.178,1387.468 Z" style="stroke-linecap:round;fill:rgb(199,234,229);" />
<line x1='1892.2' y1='1387.5' x2='1858.9' y2='1735.9' style="stroke-width:0.5;stroke:rgb(89,194,115);stroke-linecap:round;fill:none;" />
<path d="M1814.863,1706.927 A376.772,376.772 40.000 0,1 1548.293,1873.665 L1552.583,1906.863 L1858.945,1735.897 Z" style="stroke-linecap:round;fill:rgb(199,234,229);" />
<line x1='1858.9' y1='1735.9' x2='1552.6' y2='1906.9' style="stroke-width:0.5;stroke:rgb(89,194,115);stroke-linecap:round;fill:none;" />
<path d="M1548.293,1873.665 A376.772,376.772 40.000 0,1 1248.091,1780.177 L1221.149,1810.142 L1552.583,1906.863 Z" style="stroke-linecap:round;fill:rgb(199,234,229);" />
<line x1='1552.6' y1='1906.9' x2='1221.1' y2='1810.1' style="stroke-width:0.5;stroke:rgb(89,194,115);stroke-linecap:round;fill:none;" />
<path d="M1248.091,1780.177 A376.772,376.772 40.000 0,1 1123.322,1491.570 L1014.965,1489.144 L1221.149,1810.142 Z" style="stroke-linecap:round;fill:rgb(199,234,229);" />
<line x1='1221.1' y1='1810.1' x2='1015.0' y2='1489.1' style="stroke-width:0.5;stroke:rgb(89,194,115);stroke-linecap:round;fill:none;" />
<line x1='1015.0' y1='1489.1' x2='1138.3' y2='1349.5' style="stroke-width:0.5;stroke:rgb(89,194,115);stroke-linecap:round;fill:none;" />
<line x1='1138.3' y1='1349.5' x2='1261.7' y2='1209.8' style="stroke-width:0.5;stroke:rgb(89,194,115);stroke-linecap:round;fill:none;" />
<path d="M1123.322,1491.570 A376.772,376.772 40.000 0,1 1161.197,1335.167 L1113.023,1311.729 L1014.965,1489.144 Z" style="stroke-linecap:round;fill:rgb(199,234,229);" />
<path d="M1161.197,1335.167 A376.772,376.772 40.000 0,1 1260.878,1208.833 L1261.664,1209.791 L1113.023,1311.729 Z" style="stroke-linecap:round;fill:rgb(1,102,94);" />
<line x1='1015.0' y1='1489.1' x2='1261.7' y2='1209.8' style="stroke-width:0.5;stroke:rgb(89,194,115);stroke-linecap:round;fill:none;" />
<line x1='1261.7' y1='1209.8' x2='1336.2' y2='1009.8' style="stroke-width:0.5;stroke:rgb(89,194,115);stroke-linecap:round;fill:none;" />
<line x1='1336.2' y1='1009.8' x2='1410.8' y2='809.7' style="stroke-width:0.5;stroke:rgb(89,194,115);stroke-linecap:round;fill:none;" />
<path d="M1260.878,1208.833 A376.772,376.772 40.000 0,1 1350.489,1154.162 L1287.397,1008.221 L1261.664,1209.791 Z" style="stroke-linecap:round;fill:rgb(1,102,94);" />
<path d="M1350.489,1154.162 A376.772,376.772 40.000 0,1 1451.706,1126.336 L1410.788,809.741 L1287.397,1008.221 Z" style="stroke-linecap:round;fill:rgb(199,234,229);" />
<line x1='1261.7' y1='1209.8' x2='1410.8' y2='809.7' style="stroke-width:0.5;stroke:rgb(89,194,115);stroke-linecap:round;fill:none;" />
</g>
<defs>
<pattern id="checker" width="10" height="10" patternTransform="rotate(45 0 0)" patternUnits="userSpaceOnUse"><line x1="0" y1="0" x2="10" y2="0" style="stroke:black;stroke-width:2" /><line x1="0" y1="0" x2="0" y2="10" style="stroke:black;stroke-width:2" /></pattern>
<pattern id="vline" width="10" height="10" patternTransform="rotate(0 0 0)" patternUnits="userSpaceOnUse"><line x1="0" y1="0" x2="0" y2="10" style="stroke:black;stroke-width:5" /></pattern>
<pattern id="hline-sparse" width="10" height="10" patternTransform="rotate(0 0 0)" patternUnits="userSpaceOnUse"><line x1="0" y1="0" x2="10" y2="0" style="stroke:black;stroke-width:2" /></pattern>
<pattern id="checker" width="10" height="10" patternTransform="rotate(45 0 0)" patternUnits="userSpaceOnUse"><line x1="0" y1="0" x2="10" y2="0" style="stroke:black;stroke-width:5" /><line x1="0" y1="0" x2="0" y2="10" style="stroke:black;stroke-width:4" /></pattern>
<pattern id="vline-sparse" width="10" height="10" patternTransform="rotate(0 0 0)" patternUnits="userSpaceOnUse"><line x1="0" y1="0" x2="0" y2="10" style="stroke:black;stroke-width:2" /></pattern>
<pattern id="hline" width="10" height="10" patternTransform="rotate(0 0 0)" patternUnits="userSpaceOnUse"><line x1="0" y1="0" x2="10" y2="0" style="stroke:black;stroke-width:5" /></pattern>
</defs>
</svg>
