<?xml version="1.0" encoding="utf-8" standalone="no"?>
<!DOCTYPE svg PUBLIC "-//W3C//DTD SVG 1.1//EN" "http://www.w3.org/Graphics/SVG/1.1/DTD/svg11.dtd">
<svg width="3000px" height="3000px" version="1.1" xmlns="http://www.w3.org/2000/svg" xmlns:xlink="http://www.w3.org/1999/xlink">
<g id="bg">
<rect x="0" y="0" width="3000px" height="3000px" style="fill:none;"/></g>
<g id="ideograms">
<g id="highlighttrack_0">
<path d="M1567.616,469.817 A1032.400,1032.400 40.000 0,1 1597.657,472.229 L1593.268,518.421 A986.000,986.000 0.000 0,0 1564.577,516.117 Z" style="stroke-linecap:round;fill:rgb(185,199,186);" />
<path d="M2479.801,1825.329 A1032.400,1032.400 40.000 0,1 2446.532,1912.222 L2403.991,1893.695 A986.000,986.000 0.000 0,0 2435.765,1810.708 Z" style="stroke-linecap:round;fill:rgb(185,199,186);" />
<path d="M2444.873,1916.011 A1032.400,1032.400 40.000 0,1 2431.373,1945.414 L2389.514,1925.395 A986.000,986.000 0.000 0,0 2402.407,1897.314 Z" style="stroke-linecap:round;fill:rgb(185,199,186);" />
<path d="M2175.082,2281.098 A1032.400,1032.400 40.000 0,1 2146.827,2304.652 L2117.756,2268.487 A986.000,986.000 0.000 0,0 2144.742,2245.992 Z" style="stroke-linecap:round;fill:rgb(185,199,186);" />
<path d="M2078.014,2355.423 A1032.400,1032.400 40.000 0,1 1938.241,2434.770 L1918.545,2392.758 A986.000,986.000 0.000 0,0 2052.036,2316.977 Z" style="stroke-linecap:round;fill:rgb(185,199,186);" />
<path d="M501.596,1762.753 A1032.400,1032.400 40.000 0,1 479.595,1656.920 L525.456,1649.868 A986.000,986.000 0.000 0,0 546.468,1750.944 Z" style="stroke-linecap:round;fill:rgb(185,199,186);" />
<path d="M812.428,729.873 A1032.400,1032.400 40.000 0,1 848.174,699.392 L877.469,735.375 A986.000,986.000 0.000 0,0 843.331,764.486 Z" style="stroke-linecap:round;fill:rgb(185,199,186);" />
<path d="M862.482,687.953 A1032.400,1032.400 40.000 0,1 892.174,665.496 L919.492,703.001 A986.000,986.000 0.000 0,0 891.135,724.449 Z" style="stroke-linecap:round;fill:rgb(185,199,186);" />
<path d="M904.902,656.372 A1032.400,1032.400 40.000 0,1 1089.295,552.809 L1107.754,595.379 A986.000,986.000 0.000 0,0 931.648,694.288 Z" style="stroke-linecap:round;fill:rgb(185,199,186);" />
<path d="M1353.344,478.070 A1032.400,1032.400 40.000 0,1 1462.329,468.288 L1464.022,514.657 A986.000,986.000 0.000 0,0 1359.935,523.999 Z" style="stroke-linecap:round;fill:rgb(185,199,186);" />
</g>
<g id="highlighttrack_1">
<path d="M1551.568,526.966 A974.400,974.400 40.000 1,1 1474.201,525.942 L1475.429,572.325 A928.000,928.000 0.000 1,0 1549.113,573.301 Z" style="stroke-linecap:round;fill:rgb(175,201,178);" />
<path d="M1805.697,574.795 A974.400,974.400 40.000 0,1 2468.317,1608.708 L2422.207,1603.532 A928.000,928.000 0.000 0,0 1791.140,618.852 Z" style="stroke-linecap:round;fill:rgb(175,201,178);" />
<path d="M2347.022,1981.673 A974.400,974.400 40.000 0,1 2304.016,2050.467 L2265.730,2024.254 A928.000,928.000 0.000 0,0 2306.688,1958.736 Z" style="stroke-linecap:round;fill:rgb(175,201,178);" />
<path d="M2269.072,2098.318 A974.400,974.400 40.000 0,1 2235.324,2139.339 L2200.308,2108.894 A928.000,928.000 0.000 0,0 2232.449,2069.826 Z" style="stroke-linecap:round;fill:rgb(175,201,178);" />
<path d="M2235.689,2138.918 A974.400,974.400 40.000 0,1 2214.171,2162.884 L2180.163,2131.318 A928.000,928.000 0.000 0,0 2200.657,2108.493 Z" style="stroke-linecap:round;fill:rgb(175,201,178);" />
<path d="M1886.925,2394.284 A974.400,974.400 40.000 0,1 1463.270,2473.707 L1465.019,2427.340 A928.000,928.000 0.000 0,0 1868.500,2351.699 Z" style="stroke-linecap:round;fill:rgb(175,201,178);" />
<path d="M1463.409,2473.713 A974.400,974.400 40.000 0,1 1340.303,2461.224 L1347.907,2415.452 A928.000,928.000 0.000 0,0 1465.151,2427.345 Z" style="stroke-linecap:round;fill:rgb(175,201,178);" />
<path d="M1330.957,2459.625 A974.400,974.400 40.000 0,1 1102.741,2389.742 L1121.658,2347.373 A928.000,928.000 0.000 0,0 1339.006,2413.928 Z" style="stroke-linecap:round;fill:rgb(175,201,178);" />
<path d="M1103.250,2389.969 A974.400,974.400 40.000 0,1 891.910,2261.368 L920.867,2225.113 A928.000,928.000 0.000 0,0 1122.143,2347.590 Z" style="stroke-linecap:round;fill:rgb(175,201,178);" />
<path d="M882.263,2253.562 A974.400,974.400 40.000 0,1 691.291,2043.548 L729.801,2017.665 A928.000,928.000 0.000 0,0 911.679,2217.678 Z" style="stroke-linecap:round;fill:rgb(175,201,178);" />
<path d="M675.472,2019.240 A974.400,974.400 40.000 0,1 632.263,1943.269 L673.584,1922.161 A928.000,928.000 0.000 0,0 714.736,1994.514 Z" style="stroke-linecap:round;fill:rgb(175,201,178);" />
<path d="M607.540,1891.113 A974.400,974.400 40.000 0,1 592.183,1854.010 L635.412,1837.153 A928.000,928.000 0.000 0,0 650.038,1872.489 Z" style="stroke-linecap:round;fill:rgb(175,201,178);" />
<path d="M592.386,1854.530 A974.400,974.400 40.000 0,1 562.881,1766.953 L607.506,1754.241 A928.000,928.000 0.000 0,0 635.605,1837.648 Z" style="stroke-linecap:round;fill:rgb(175,201,178);" />
<path d="M534.958,1634.722 A974.400,974.400 40.000 0,1 541.691,1323.651 L587.325,1332.048 A928.000,928.000 0.000 0,0 580.913,1628.307 Z" style="stroke-linecap:round;fill:rgb(175,201,178);" />
<path d="M553.747,1267.490 A974.400,974.400 40.000 0,1 563.435,1231.112 L608.033,1243.916 A928.000,928.000 0.000 0,0 598.807,1278.562 Z" style="stroke-linecap:round;fill:rgb(175,201,178);" />
<path d="M563.128,1232.184 A974.400,974.400 40.000 0,1 574.695,1194.605 L618.757,1209.148 A928.000,928.000 0.000 0,0 607.741,1244.937 Z" style="stroke-linecap:round;fill:rgb(175,201,178);" />
<path d="M579.571,1180.210 A974.400,974.400 40.000 0,1 618.766,1084.209 L660.729,1104.009 A928.000,928.000 0.000 0,0 623.401,1195.438 Z" style="stroke-linecap:round;fill:rgb(175,201,178);" />
<path d="M666.204,995.778 A974.400,974.400 40.000 0,1 703.500,938.714 L741.428,965.442 A928.000,928.000 0.000 0,0 705.908,1019.789 Z" style="stroke-linecap:round;fill:rgb(175,201,178);" />
<path d="M759.257,866.947 A974.400,974.400 40.000 0,1 801.531,820.592 L834.791,852.944 A928.000,928.000 0.000 0,0 794.531,897.093 Z" style="stroke-linecap:round;fill:rgb(175,201,178);" />
<path d="M1128.807,599.072 A974.400,974.400 40.000 0,1 1260.952,555.378 L1272.335,600.360 A928.000,928.000 0.000 0,0 1146.483,641.973 Z" style="stroke-linecap:round;fill:rgb(175,201,178);" />
<path d="M1288.898,548.742 A974.400,974.400 40.000 0,1 1327.859,540.926 L1336.056,586.596 A928.000,928.000 0.000 0,0 1298.950,594.040 Z" style="stroke-linecap:round;fill:rgb(175,201,178);" />
</g>
<path d="M1500.000,340.000 A1160.000,1160.000 40.000 1,1 1499.790,340.000 L1499.783,300.000 A1200.000,1200.000 0.000 1,0 1500.000,300.000 Z" style="stroke-width:2.0;stroke:rgb(0,0,0);stroke-linecap:round;fill:rgb(0,0,0);" />
<path d="M1500.000,340.000 A1160.000,1160.000 40.000 1,1 1499.790,340.000 L1499.783,300.000 A1200.000,1200.000 0.000 1,0 1500.000,300.000 Z" style="stroke-linecap:round;fill:rgb(255,255,255);" />
<line x1='1500.0' y1='300.0' x2='1500.0' y2='290.0' style="stroke-width:3.0;stroke:rgb(0,0,0);stroke-linecap:round;fill:none;" />
<text x="1510.0" y="285.0" font-size="26.0px" font-family="CMUBright-Roman" style="text-anchor:start;fill:rgb(0,0,0);" transform="rotate(270.0,1510.0,285.0)" >0 Mb</text>
<path d="M1500.000,340.000 A1160.000,1160.000 40.000 1,1 1499.790,340.000 L1499.783,300.000 A1200.000,1200.000 0.000 1,0 1500.000,300.000 Z" style="stroke-width:2.0;stroke:rgb(0,0,0);stroke-linecap:round;fill:none;" />
</g>
<g id="plot0">
<g id="plot0-axis">
</g>
<path d="M1751.892,826.354 A719.200,719.200 40.000 0,1 2132.031,1156.801 L2213.584,1112.518 L1760.018,804.623 Z" style="stroke-linecap:round;fill:rgb(89,60,6);" />
<line x1='1760.0' y1='804.6' x2='2213.6' y2='1112.5' style="stroke-width:1.0;stroke:rgb(0,0,0);stroke-linecap:round;fill:none;" />
<path d="M2132.031,1156.801 A719.200,719.200 40.000 0,1 2202.170,1655.582 L2217.271,1658.928 L2213.584,1112.518 Z" style="stroke-linecap:round;fill:rgb(89,60,6);" />
<line x1='2213.6' y1='1112.5' x2='2217.3' y2='1658.9' style="stroke-width:1.0;stroke:rgb(0,0,0);stroke-linecap:round;fill:none;" />
<path d="M2202.170,1655.582 A719.200,719.200 40.000 0,1 1927.907,2078.052 L1946.312,2102.915 L2217.271,1658.928 Z" style="stroke-linecap:round;fill:rgb(89,60,6);" />
<line x1='2217.3' y1='1658.9' x2='1946.3' y2='2102.9' style="stroke-width:1.0;stroke:rgb(0,0,0);stroke-linecap:round;fill:none;" />
<path d="M1927.907,2078.052 A719.200,719.200 40.000 0,1 1443.763,2216.998 L1438.925,2278.675 L1946.312,2102.915 Z" style="stroke-linecap:round;fill:rgb(89,60,6);" />
<line x1='1946.3' y1='2102.9' x2='1438.9' y2='2278.7' style="stroke-width:1.0;stroke:rgb(0,0,0);stroke-linecap:round;fill:none;" />
<path d="M1443.763,2216.998 A719.200,719.200 40.000 0,1 987.202,2004.269 L965.147,2025.958 L1438.925,2278.675 Z" style="stroke-linecap:round;fill:rgb(89,60,6);" />
<line x1='1438.9' y1='2278.7' x2='965.1' y2='2026.0' style="stroke-width:1.0;stroke:rgb(0,0,0);stroke-linecap:round;fill:none;" />
<path d="M987.202,2004.269 A719.200,719.200 40.000 0,1 782.160,1544.205 L774.441,1544.680 L965.147,2025.958 Z" style="stroke-linecap:round;fill:rgb(89,60,6);" />
<line x1='965.1' y1='2026.0' x2='774.4' y2='1544.7' style="stroke-width:1.0;stroke:rgb(0,0,0);stroke-linecap:round;fill:none;" />
<path d="M782.160,1544.205 A719.200,719.200 40.000 0,1 929.205,1062.459 L929.205,1062.459 L774.441,1544.680 Z" style="stroke-linecap:round;fill:rgb(89,60,6);" />
<line x1='774.4' y1='1544.7' x2='929.2' y2='1062.5' style="stroke-width:1.0;stroke:rgb(0,0,0);stroke-linecap:round;fill:none;" />
<path d="M929.205,1062.459 A719.200,719.200 40.000 0,1 1301.601,808.707 L1290.935,771.540 L929.205,1062.459 Z" style="stroke-linecap:round;fill:rgb(89,60,6);" />
<line x1='929.2' y1='1062.5' x2='1290.9' y2='771.5' style="stroke-width:1.0;stroke:rgb(0,0,0);stroke-linecap:round;fill:none;" />
</g>
<g id="plot1">
<g id="plot1-axis">
</g>
<path d="M1665.304,1057.921 A471.974,471.974 40.000 0,1 1914.769,1274.777 L2111.643,1167.872 L1681.217,1015.364 Z" style="stroke-linecap:round;fill:rgb(199,234,229);" />
<line x1='1681.2' y1='1015.4' x2='2111.6' y2='1167.9' style="stroke-width:0.5;stroke:rgb(89,194,115);stroke-linecap:round;fill:none;" />
<path d="M1914.769,1274.777 A471.974,471.974 40.000 0,1 1960.798,1602.100 L1979.959,1606.346 L2111.643,1167.872 Z" style="stroke-linecap:round;fill:rgb(199,234,229);" />
<line x1='2111.6' y1='1167.9' x2='1980.0' y2='1606.3' style="stroke-width:0.5;stroke:rgb(89,194,115);stroke-linecap:round;fill:none;" />
<path d="M1960.798,1602.100 A471.974,471.974 40.000 0,1 1780.813,1879.346 L1841.529,1961.366 L1979.959,1606.346 Z" style="stroke-linecap:round;fill:rgb(199,234,229);" />
<line x1='1980.0' y1='1606.3' x2='1841.5' y2='1961.4' style="stroke-width:0.5;stroke:rgb(89,194,115);stroke-linecap:round;fill:none;" />
<path d="M1780.813,1879.346 A471.974,471.974 40.000 0,1 1463.095,1970.529 L1456.380,2056.133 L1841.529,1961.366 Z" style="stroke-linecap:round;fill:rgb(199,234,229);" />
<line x1='1841.5' y1='1961.4' x2='1456.4' y2='2056.1' style="stroke-width:0.5;stroke:rgb(89,194,115);stroke-linecap:round;fill:none;" />
<line x1='1456.4' y1='2056.1' x2='1325.1' y2='1928.6' style="stroke-width:0.5;stroke:rgb(89,194,115);stroke-linecap:round;fill:none;" />
<line x1='1325.1' y1='1928.6' x2='1193.8' y2='1801.1' style="stroke-width:0.5;stroke:rgb(89,194,115);stroke-linecap:round;fill:none;" />
<path d="M1463.095,1970.529 A471.974,471.974 40.000 0,1 1300.665,1927.814 L1291.501,1947.482 L1456.380,2056.133 Z" style="stroke-linecap:round;fill:rgb(199,234,229);" />
<path d="M1300.665,1927.814 A471.974,471.974 40.000 0,1 1163.477,1830.926 L1193.759,1801.147 L1291.501,1947.482 Z" style="stroke-linecap:round;fill:rgb(1,102,94);" />
<line x1='1456.4' y1='2056.1' x2='1193.8' y2='1801.1' style="stroke-width:0.5;stroke:rgb(89,194,115);stroke-linecap:round;fill:none;" />
<path d="M1163.477,1830.926 A471.974,471.974 40.000 0,1 1028.919,1529.009 L1114.641,1523.731 L1193.759,1801.147 Z" style="stroke-linecap:round;fill:rgb(1,102,94);" />
<line x1='1193.8' y1='1801.1' x2='1114.6' y2='1523.7' style="stroke-width:0.5;stroke:rgb(89,194,115);stroke-linecap:round;fill:none;" />
<path d="M1028.919,1529.009 A471.974,471.974 40.000 0,1 1125.417,1212.865 L1131.931,1217.858 L1114.641,1523.731 Z" style="stroke-linecap:round;fill:rgb(1,102,94);" />
<line x1='1114.6' y1='1523.7' x2='1131.9' y2='1217.9' style="stroke-width:0.5;stroke:rgb(89,194,115);stroke-linecap:round;fill:none;" />
<path d="M1125.417,1212.865 A471.974,471.974 40.000 0,1 1369.801,1046.340 L1404.001,1165.503 L1131.931,1217.858 Z" style="stroke-linecap:round;fill:rgb(1,102,94);" />
<line x1='1131.9' y1='1217.9' x2='1404.0' y2='1165.5' style="stroke-width:0.5;stroke:rgb(89,194,115);stroke-linecap:round;fill:none;" />
</g>
<defs>
<pattern id="hline" width="10" height="10" patternTransform="rotate(0 0 0)" patternUnits="userSpaceOnUse"><line x1="0" y1="0" x2="10" y2="0" style="stroke:black;stroke-width:5" /></pattern>
<pattern id="vline-sparse" width="10" height="10" patternTransform="rotate(0 0 0)" patternUnits="userSpaceOnUse"><line x1="0" y1="0" x2="0" y2="10" style="stroke:black;stroke-width:2" /></pattern>
<pattern id="checker" width="10" height="10" patternTransform="rotate(45 0 0)" patternUnits="userSpaceOnUse"><line x1="0" y1="0" x2="10" y2="0" style="stroke:black;stroke-width:2" /><line x1="0" y1="0" x2="0" y2="10" style="stroke:black;stroke-width:2" /></pattern>
<pattern id="hline-sparse" width="10" height="10" patternTransform="rotate(0 0 0)" patternUnits="userSpaceOnUse"><line x1="0" y1="0" x2="10" y2="0" style="stroke:black;stroke-width:2" /></pattern>
<pattern id="vline" width="10" height="10" patternTransform="rotate(0 0 0)" patternUnits="userSpaceOnUse"><line x1="0" y1="0" x2="0" y2="10" style="stroke:black;stroke-width:5" /></pattern>
<pattern id="checker" width="10" height="10" patternTransform="rotate(45 0 0)" patternUnits="userSpaceOnUse"><line x1="0" y1="0" x2="10" y2="0" style="stroke:black;stroke-width:5" /><line x1="0" y1="0" x2="0" y2="10" style="stroke:black;stroke-width:4" /></pattern>
</defs>
</svg>
